<svg width="195" height="48" viewBox="0 0 195 48" fill="none" xmlns="http://www.w3.org/2000/svg">
<rect x="1" y="1" width="193" height="46" rx="5" fill="#0F62FE"/>
<path d="M25.3999 23.4V18.4C25.3999 18.1348 25.2945 17.8805 25.107 17.6929C24.9195 17.5054 24.6651 17.4 24.3999 17.4C24.1347 17.4 23.8803 17.5054 23.6928 17.6929C23.5053 17.8805 23.3999 18.1348 23.3999 18.4V23.4H18.3999C18.1347 23.4 17.8803 23.5054 17.6928 23.6929C17.5053 23.8805 17.3999 24.1348 17.3999 24.4C17.3999 24.6652 17.5053 24.9196 17.6928 25.1071C17.8803 25.2947 18.1347 25.4 18.3999 25.4H23.3999V30.4C23.3999 30.6652 23.5053 30.9196 23.6928 31.1071C23.8803 31.2947 24.1347 31.4 24.3999 31.4C24.6651 31.4 24.9195 31.2947 25.107 31.1071C25.2945 30.9196 25.3999 30.6652 25.3999 30.4V25.4H30.3999C30.6651 25.4 30.9195 25.2947 31.107 25.1071C31.2945 24.9196 31.3999 24.6652 31.3999 24.4C31.3999 24.1348 31.2945 23.8805 31.107 23.6929C30.9195 23.5054 30.6651 23.4 30.3999 23.4H25.3999Z" fill="white"/>
<path d="M52.8 23H65.872V24.056H52.8V23ZM58.672 20.504H59.984V23.416H58.672V20.504ZM54.24 25.464H64.272V30.36H62.944V26.552H54.24V25.464ZM54.448 20.184H64.368V21.272H54.448V20.184ZM54.448 16.36H64.24V17.448H55.776V20.744H54.448V16.36ZM75.2348 20.68H79.2668V21.768H75.2348V20.68ZM71.7468 17.032H72.8348V19.608C72.8348 22.856 71.1228 25.96 68.8348 27.192L67.9868 26.136C70.1148 25.08 71.7468 22.296 71.7468 19.608V17.032ZM72.0028 17.032H73.0748V19.608C73.0748 22.248 74.7068 24.872 76.8028 25.864L76.0188 26.936C73.6828 25.752 72.0028 22.776 72.0028 19.608V17.032ZM78.6108 15.768H79.9228V30.264H78.6108V15.768ZM87.7219 27.304H100.826V28.408H87.7219V27.304ZM93.5779 23.56H94.9059V27.608H93.5779V23.56ZM89.2419 16.984H99.2259V23.8H89.2419V16.984ZM97.9459 18.056H90.5379V22.728H97.9459V18.056ZM113.453 15.8H114.797V24.056H113.453V15.8ZM105.453 24.84H114.797V30.056H105.453V24.84ZM113.485 25.896H106.749V28.984H113.485V25.896ZM107.037 16.552C109.229 16.552 110.797 17.928 110.797 19.928C110.797 21.928 109.229 23.304 107.037 23.304C104.845 23.304 103.261 21.928 103.261 19.928C103.261 17.928 104.845 16.552 107.037 16.552ZM107.037 17.656C105.597 17.656 104.557 18.584 104.557 19.928C104.557 21.272 105.597 22.184 107.037 22.184C108.477 22.184 109.517 21.272 109.517 19.928C109.517 18.584 108.477 17.656 107.037 17.656ZM123.236 17.08H129.876V23.784H123.236V17.08ZM128.58 18.152H124.532V22.712H128.58V18.152ZM132.532 15.768H133.86V26.376H132.532V15.768ZM133.444 20.184H136.004V21.288H133.444V20.184ZM124.852 28.84H134.516V29.928H124.852V28.84ZM124.852 25.368H126.18V29.304H124.852V25.368ZM137.863 21.816H150.935V22.904H137.863V21.816ZM139.591 19.576H149.383V20.648H139.591V19.576ZM139.591 16.248H149.223V17.336H140.903V20.44H139.591V16.248ZM139.431 24.152H149.255V27.56H140.775V29.384H139.463V26.568H147.943V25.192H139.431V24.152ZM139.463 29.032H149.687V30.088H139.463V29.032ZM163.609 15.784H164.937V30.248H163.609V15.784ZM159.369 17.336H160.681C160.681 21.528 158.793 25.192 153.961 27.56L153.257 26.488C157.433 24.472 159.369 21.4 159.369 17.56V17.336ZM153.913 17.336H159.945V18.424H153.913V17.336Z" fill="white"/>
<rect x="1" y="1" width="193" height="46" rx="5" stroke="#0F62FE" stroke-width="2"/>
</svg>
