<svg width="26" height="24" viewBox="0 0 26 24" fill="none" xmlns="http://www.w3.org/2000/svg">
<path d="M14.0628 2.19014L12.997 3.33099L11.926 2.18737C10.6157 0.788431 8.8387 0.0025892 6.98582 0.00271934C5.13294 0.00284948 3.356 0.78894 2.04591 2.18806C0.735814 3.58718 -0.000121861 5.48472 1.51351e-08 7.46325C0.000121891 9.44177 0.736291 11.3392 2.04656 12.7381L12.3081 23.6956C12.4909 23.8905 12.7387 24 12.997 24C13.2553 24 13.5031 23.8905 13.6859 23.6956L23.9565 12.7354C25.2653 11.3361 26.0002 9.43935 26 7.46178C25.9998 5.48421 25.2643 3.58762 23.9552 2.18875C23.3058 1.49486 22.5348 0.944414 21.6861 0.568857C20.8374 0.193301 19.9277 0 19.009 0C18.0903 0 17.1807 0.193301 16.332 0.568857C15.4833 0.944414 14.7122 1.49486 14.0628 2.18875V2.19014ZM22.5736 11.267L12.997 21.4888L3.4243 11.267C2.95253 10.7685 2.57766 10.1755 2.32124 9.52183C2.06482 8.86819 1.93191 8.16689 1.93015 7.45822C1.92838 6.74955 2.0578 6.0475 2.31096 5.39242C2.56411 4.73733 2.93602 4.14213 3.4053 3.64103C3.87458 3.13992 4.43199 2.74279 5.04547 2.47247C5.65895 2.20214 6.31642 2.06395 6.98008 2.06584C7.64374 2.06772 8.30051 2.20965 8.91264 2.48345C9.52477 2.75726 10.0802 3.15755 10.547 3.66131L12.312 5.54469C12.4039 5.64286 12.5131 5.72044 12.6335 5.77286C12.7538 5.82528 12.8827 5.85148 13.0126 5.84993C13.1426 5.84838 13.2709 5.8191 13.3901 5.76382C13.5093 5.70854 13.6169 5.62837 13.7067 5.52803L15.4405 3.66131C16.3963 2.7114 17.6598 2.19432 18.9652 2.21885C20.2707 2.24338 21.5164 2.8076 22.4402 3.79283C23.364 4.77805 23.894 6.10748 23.9187 7.50144C23.9433 8.8954 23.4607 10.2452 22.5723 11.267H22.5736Z" fill="#536471"/>
</svg>
