<svg width="20" height="17" viewBox="0 0 20 17" fill="none" xmlns="http://www.w3.org/2000/svg">
<path d="M3.34955 11.601L3.34949 11.6009C1.38443 9.45939 0.47705 7.30385 0.500441 4.9937C0.52756 2.54318 2.67323 0.5 5.34058 0.5C7.45867 0.5 8.87225 1.63221 9.62901 2.46955L9.99996 2.88L10.3709 2.46955C11.1277 1.63221 12.5413 0.5 14.6593 0.5C17.3269 0.5 19.4725 2.54337 19.4995 4.99257C19.5247 7.30377 18.6176 9.45783 16.6506 11.5994L16.6503 11.5998C15.0309 13.3663 12.9194 14.6433 11.0244 15.7893C10.7339 15.965 10.4485 16.1376 10.1707 16.3085L9.99996 16.4133L9.82922 16.3085C9.55115 16.1375 9.26542 15.9647 8.97458 15.7888C7.07985 14.6429 4.96868 13.3661 3.34955 11.601Z" fill="#21272A" stroke="#535353"/>
</svg>
