<svg width="23" height="20" viewBox="0 0 23 20" fill="none" xmlns="http://www.w3.org/2000/svg">
<path d="M3.80052 13.712L3.80046 13.712C1.52999 11.1807 0.473307 8.62261 0.500512 5.87393C0.532332 2.92769 3.04798 0.5 6.14167 0.5C8.60215 0.5 10.2455 1.84618 11.1252 2.84198L11.5 3.26614L11.8747 2.84198C12.7544 1.84618 14.3978 0.5 16.8582 0.5C19.9521 0.5 22.4677 2.92788 22.4994 5.87257C22.5288 8.62254 21.4723 11.1789 19.1996 13.7102L19.1993 13.7106C17.3287 15.7981 14.8899 17.3069 12.7114 18.6546C12.3776 18.8611 12.0499 19.0638 11.7313 19.2643L11.5 19.4096L11.2686 19.2643C10.9497 19.0636 10.6216 18.8607 10.2874 18.6539C8.10918 17.3064 5.67084 15.7979 3.80052 13.712Z" fill="#21272A" stroke="#535353"/>
</svg>
