<svg width="55" height="55" viewBox="0 0 55 55" fill="none" xmlns="http://www.w3.org/2000/svg">
<rect width="54.6829" height="54.3455" rx="27.1727" fill="#F2F4F8"/>
<path d="M23.8756 27.2427C23.9985 27.1903 24.1307 27.163 24.2644 27.1625C24.398 27.162 24.5305 27.1883 24.6538 27.2399C24.7771 27.2915 24.8888 27.3672 24.9824 27.4627C25.0759 27.5582 25.1494 27.6715 25.1984 27.7959C25.2474 27.9202 25.2709 28.0531 25.2677 28.1868C25.2645 28.3204 25.2345 28.452 25.1795 28.5739C25.1245 28.6957 25.0456 28.8053 24.9476 28.8961C24.8495 28.987 24.7342 29.0572 24.6086 29.1027C23.9401 29.3661 23.3664 29.8246 22.9621 30.4185C22.5577 31.0124 22.3415 31.7143 22.3416 32.4327V34.1727C22.3416 34.4379 22.4469 34.6923 22.6344 34.8798C22.822 35.0674 23.0763 35.1727 23.3416 35.1727H31.3416C31.6068 35.1727 31.8611 35.0674 32.0487 34.8798C32.2362 34.6923 32.3416 34.4379 32.3416 34.1727V32.5257C32.3417 31.7842 32.1164 31.0602 31.6957 30.4496C31.2749 29.839 30.6785 29.3707 29.9856 29.1067C29.8591 29.0628 29.7427 28.994 29.6434 28.9043C29.544 28.8146 29.4636 28.7059 29.4071 28.5846C29.3505 28.4633 29.3189 28.3318 29.314 28.1981C29.3092 28.0643 29.3313 27.9309 29.379 27.8058C29.4266 27.6808 29.4989 27.5665 29.5916 27.4699C29.6842 27.3733 29.7953 27.2962 29.9183 27.2434C30.0413 27.1905 30.1736 27.1628 30.3075 27.162C30.4413 27.1612 30.574 27.1873 30.6976 27.2387C31.7692 27.6469 32.6914 28.3711 33.3422 29.3152C33.993 30.2594 34.3415 31.379 34.3416 32.5257V34.1727C34.3416 34.9684 34.0255 35.7314 33.4629 36.2941C32.9003 36.8567 32.1372 37.1727 31.3416 37.1727H23.3416C22.5459 37.1727 21.7828 36.8567 21.2202 36.2941C20.6576 35.7314 20.3416 34.9684 20.3416 34.1727V32.4327C20.3417 31.3129 20.6788 30.219 21.3091 29.2934C21.9394 28.3677 22.8337 27.6532 23.8756 27.2427V27.2427ZM27.3416 17.1727C28.4024 17.1727 29.4198 17.5942 30.17 18.3443C30.9201 19.0944 31.3416 20.1119 31.3416 21.1727V23.1727C31.3416 24.2336 30.9201 25.251 30.17 26.0012C29.4198 26.7513 28.4024 27.1727 27.3416 27.1727C26.2807 27.1727 25.2633 26.7513 24.5131 26.0012C23.763 25.251 23.3416 24.2336 23.3416 23.1727V21.1727C23.3416 20.1119 23.763 19.0944 24.5131 18.3443C25.2633 17.5942 26.2807 17.1727 27.3416 17.1727V17.1727ZM27.3416 19.1727C26.8111 19.1727 26.3024 19.3834 25.9273 19.7585C25.5523 20.1336 25.3416 20.6423 25.3416 21.1727V23.1727C25.3416 23.7032 25.5523 24.2119 25.9273 24.5869C26.3024 24.962 26.8111 25.1727 27.3416 25.1727C27.872 25.1727 28.3807 24.962 28.7558 24.5869C29.1308 24.2119 29.3416 23.7032 29.3416 23.1727V21.1727C29.3416 20.6423 29.1308 20.1336 28.7558 19.7585C28.3807 19.3834 27.872 19.1727 27.3416 19.1727Z" fill="#C1C7CD"/>
</svg>
